<?xml version="1.0" encoding="utf-8"?>
<!-- Generator: Adobe Illustrator 19.0.1, SVG Export Plug-In . SVG Version: 6.00 Build 0)  -->
<svg version="1.1" id="Capa_1" xmlns="http://www.w3.org/2000/svg" xmlns:xlink="http://www.w3.org/1999/xlink" x="0px" y="0px"
	 viewBox="0 0 56.7 56.7" style="enable-background:new 0 0 56.7 56.7;" xml:space="preserve">
<style type="text/css">
	.st0{fill:none;stroke:#000000;stroke-width:1.4173;stroke-linecap:round;stroke-linejoin:round;stroke-miterlimit:10;}
</style>
<path class="st0" d="M46.6,22.8c0-0.4,0.1-0.7,0.1-1.1c0-8.8-9.2-16-20.6-16c-11.4,0-20.6,7.2-20.6,16c0,1.5,0.3,2.9,0.8,4.3L1,33.2
	l8-2.7c0.6,0.7,1.2,1.3,1.8,1.9"/>
<path class="st0" d="M55.9,48l-5.1-6.8c0.6-1.5,1-3,1-4.7c0-8.2-8.6-14.9-19.1-14.9s-19.1,6.7-19.1,14.9c0,8.2,8.6,14.9,19.1,14.9
	c6.3,0,11.9-2.4,15.4-6L55.9,48z"/>
<circle class="st0" cx="39.8" cy="36.6" r="1.1"/>
<circle class="st0" cx="33" cy="36.6" r="1.1"/>
<circle class="st0" cx="26.1" cy="36.6" r="1.1"/>
</svg>
