<?xml version="1.0" encoding="utf-8"?>
<!-- Generator: Adobe Illustrator 19.0.1, SVG Export Plug-In . SVG Version: 6.00 Build 0)  -->
<svg version="1.1" id="Capa_1" xmlns="http://www.w3.org/2000/svg" xmlns:xlink="http://www.w3.org/1999/xlink" x="0px" y="0px"
	 viewBox="0 0 56.7 56.7" style="enable-background:new 0 0 56.7 56.7;" xml:space="preserve">
<style type="text/css">
	.st0{fill:#FFFFFF;}
</style>
<g>
	<path class="st0" d="M48.8,40.4c0-2.8,0.1-5.6,0-8.4c0-0.8-0.4-1.9-1-2.4c-6.1-5.1-12.2-10-18.3-15.1c-1-0.8-1.7-0.7-2.6,0
		c-6,5-12.1,9.9-18.2,14.9C8,30,7.5,31.1,7.5,31.9c-0.1,5.6,0,11.2-0.1,16.8c0,2,0.9,2.9,2.9,2.8c2.7,0,5.5-0.1,8.2,0
		c1.5,0,2-0.5,2-2c0-2.9-0.1-5.8,0.2-8.6c0.3-3.8,3.2-6.6,6.8-7c3.4-0.4,6.6,1.9,7.8,5.5c0.4,1.2,0.5,2.5,0.5,3.8
		c0.1,2.2,0.1,4.3,0,6.5c0,1.3,0.4,1.8,1.7,1.8c2.9-0.1,5.7,0,8.6,0c1.8,0,2.6-0.8,2.6-2.6C48.7,46,48.7,43.2,48.8,40.4z"/>
	<path d="M48.7,40.4c0,2.8,0,5.6,0,8.4c0,1.8-0.8,2.6-2.6,2.6c-2.9,0-5.7-0.1-8.6,0c-1.3,0-1.8-0.5-1.7-1.8c0.1-2.2,0-4.3,0-6.5
		c-0.1-1.3-0.1-2.6-0.5-3.8c-1.1-3.6-4.4-5.9-7.8-5.5c-3.6,0.4-6.4,3.2-6.8,7c-0.2,2.9-0.2,5.7-0.2,8.6c0,1.5-0.5,2-2,2
		c-2.7-0.1-5.5-0.1-8.2,0c-2,0-2.9-0.8-2.9-2.8c0.1-5.6,0-11.2,0.1-16.8c0-0.8,0.5-1.8,1.1-2.3c6-5,12.1-9.9,18.2-14.9
		c0.9-0.8,1.6-0.8,2.6,0c6.1,5,12.2,10,18.3,15.1c0.6,0.5,1,1.5,1,2.4C48.8,34.8,48.8,37.6,48.7,40.4z"/>
</g>
<path d="M55.7,26c-1.7-1.5-3.3-3.1-5.1-4.5c-1.3-1-1.8-2.1-1.8-3.8c0-2.6,0-5.2,0-7.9c-3.2,0-6,0-8.8,0c0,0,0,0,0,0h-0.3v2.5
	c-0.7-0.5-1.3-0.9-1.8-1.4c-2.1-1.7-4.1-3.4-6.2-5c-2.7-2.1-4.5-2.2-7.1,0c-5.4,4.4-10.9,8.9-16.3,13.4c-2.6,2.2-5.2,4.5-7.8,6.7
	c0,0.6,0,1.1,0,1.7C2.8,30,3.8,30.1,6.3,28c6.7-5.5,13.4-11,20.1-16.5c1.3-1.1,2.2-1.1,3.5,0c6.6,5.5,13.3,10.9,19.9,16.4
	c2.7,2.2,3.6,2.2,5.9-0.1C56.2,27,56.3,26.6,55.7,26z"/>
</svg>
