<?xml version="1.0" encoding="utf-8"?>
<!-- Generator: Adobe Illustrator 19.0.1, SVG Export Plug-In . SVG Version: 6.00 Build 0)  -->
<svg version="1.1" id="Capa_1" xmlns="http://www.w3.org/2000/svg" xmlns:xlink="http://www.w3.org/1999/xlink" x="0px" y="0px"
	 viewBox="0 0 56.7 56.7" style="enable-background:new 0 0 56.7 56.7;" xml:space="preserve">
<style type="text/css">
	.st0{fill:none;stroke:#000000;stroke-width:1.4173;stroke-linecap:round;stroke-linejoin:round;stroke-miterlimit:10;}
</style>
<path class="st0" d="M21.4,46.9c0,1.9,1.5,3.4,3.4,3.4h21.5c2.2,0,4-1.8,4-4c0-1-0.4-1.9-1-2.6c1.7-0.5,2.9-2,2.9-3.8
	c0-1-0.4-1.9-1-2.6c1.7-0.5,2.9-2,2.9-3.8c0-1-0.4-1.9-1-2.6c1.7-0.5,2.9-2,2.9-3.8c0-2.2-1.8-4-4-4H37.2v-9l-1.3-6.8
	c-0.6-1.8-2.6-2.7-4.3-2c-1.4,0.5-2.3,1.8-2.2,3.2l0,6.8l-7.9,11.3"/>
<polygon class="st0" points="3.1,50.3 18,50.3 18,26.6 1,26.6 "/>
<circle class="st0" cx="12.3" cy="44.7" r="1.1"/>
</svg>
