<?xml version="1.0" encoding="utf-8"?>
<!-- Generator: Adobe Illustrator 19.0.1, SVG Export Plug-In . SVG Version: 6.00 Build 0)  -->
<svg version="1.1" id="Capa_1" xmlns="http://www.w3.org/2000/svg" xmlns:xlink="http://www.w3.org/1999/xlink" x="0px" y="0px"
	 viewBox="0 0 56.7 56.7" style="enable-background:new 0 0 56.7 56.7;" xml:space="preserve">
<style type="text/css">
	.st0{fill:none;stroke:#000000;stroke-width:1.4173;stroke-linecap:round;stroke-linejoin:round;stroke-miterlimit:10;}
</style>
<path class="st0" d="M39.6,35.9V26c0-5.1-3.4-9.4-8.1-10.7c1.9-1.1,3.2-3,3.2-5.4c0-3.4-2.8-6.2-6.2-6.2s-6.2,2.8-6.2,6.2
	c0,2.3,1.3,4.3,3.2,5.4c-4.7,1.3-8.1,5.6-8.1,10.7v9.9"/>
<path class="st0" d="M55.7,35.9l0-7.4c0-5.1-3.4-9.4-8.1-10.7c1.9-1.1,3.2-3,3.2-5.4c0-3.4-2.8-6.2-6.2-6.2s-6.2,2.8-6.2,6.2
	c0,2.3,1.3,4.3,3.2,5.4"/>
<polyline class="st0" points="35.9,37.1 35.9,51.9 21.1,51.9 21.1,37.1 "/>
<polyline class="st0" points="52,37.1 52,51.9 39.6,51.9 "/>
<path class="st0" d="M1.4,35.9l0-7.4c0-5.1,3.4-9.4,8.1-10.7c-1.9-1.1-3.2-3-3.2-5.4c0-3.4,2.8-6.2,6.2-6.2s6.2,2.8,6.2,6.2
	c0,2.3-1.3,4.3-3.2,5.4"/>
<polyline class="st0" points="5.1,37.1 5.1,51.9 17.4,51.9 "/>
</svg>
