<?xml version="1.0" encoding="utf-8"?>
<!-- Generator: Adobe Illustrator 19.0.1, SVG Export Plug-In . SVG Version: 6.00 Build 0)  -->
<svg version="1.1" id="Capa_1" xmlns="http://www.w3.org/2000/svg" xmlns:xlink="http://www.w3.org/1999/xlink" x="0px" y="0px"
	 viewBox="0 0 56.7 56.7" style="enable-background:new 0 0 56.7 56.7;" xml:space="preserve">
<style type="text/css">
	.st0{fill:#030104;stroke:#FFFFFF;stroke-miterlimit:10;}
</style>
<path class="st0" d="M53.1,47.5c-2.7-2.9-5.4-5.9-8.3-8.7c-1-0.9-2.4-1.4-3.7-2c-0.9-0.4-1.8-0.8-2.9-1.2c-0.1,0-0.2-0.1-0.3-0.1
	c2.4-2.9,4.1-5.8,4.9-9c0.4-1.6,0.6-3.2,0.6-4.9c0-9.9-6.7-18.2-15.8-20.6C27.4,1.1,27.1,1,26.8,1c-0.2,0-0.5-0.1-0.7-0.2
	c-1.3-0.2-2.5-0.4-3.9-0.4h0c-0.5,0-0.9,0-1.4,0.1C9.8,1.2,1,10.4,1,21.7C1,33.4,10.5,43,22.3,43c5.1,0,9.8-1.8,13.5-4.8
	c0.4,1.1,0.7,2.1,1.1,3.1c0.4,1.1,0.7,2.4,1.4,3.3c3,3.4,6.2,6.7,9.4,10c0.7,0.8,1.8,1.2,2.6,1.8c0.6,0,1.2,0,1.7,0
	C56.4,53.6,56.7,51.3,53.1,47.5z M22.3,35.8c-7.8,0-14.1-6.3-14.1-14.1S14.4,7.6,22.3,7.6c1.8,0,3.5,0.3,5,0.9
	c5.3,1.8,9.2,6.8,9.2,12.8c0,0.7-0.1,1.4-0.2,2.1C35.5,30.4,29.5,35.8,22.3,35.8z"/>
</svg>
